<?xml version="1.0" encoding="UTF-8"?>
<svg baseProfile="tiny" version="1.2" width="100px" height="100px" viewBox="0 0 400 400" xml:space="preserve" xmlns="http://www.w3.org/2000/svg" xmlns:xlink="http://www.w3.org/1999/xlink">
	<circle cx="200" cy="200" r="200" />
	<path fill="#fff" d="m281.25 125c-37.14 0-65.069 21.826-81.25 38.904-16.181-17.078-44.11-38.904-81.25-38.904-35.474 0-75 28.235-75 68.75 0 40.516 39.526 68.75 75 68.75 13.107 0 26.129-2.765 38.711-8.215 9.5-4.12 13.864-15.162 9.745-24.665-4.117-9.503-15.149-13.854-24.662-9.747-7.843 3.406-15.848 5.127-23.794 5.127-18.924 0-37.75-15.479-37.75-31.25 0-14.023 15-27.786 31-30.67v24.42c0 10.354 8.646 18.75 19 18.75s19-8.396 19-18.75v-16.07c15.305 8.776 26 21.753 31 28.253v106.57c0 10.357 8.646 18.75 19 18.75 10.357 0 19-8.393 19-18.75v-65.948c16 11.938 36.936 22.198 62.375 22.198 35.474 0 74.938-28.234 74.938-68.75 0-40.515-39.589-68.75-75.063-68.75zm0 100c-26.453 0-47.144-19.037-57.685-31.229 10.571-12.189 31.329-31.271 57.685-31.271 18.927 0 37.5 15.479 37.5 31.25s-18.573 31.25-37.5 31.25z" />
</svg>
