<?xml version="1.0" encoding="UTF-8"?>
<svg baseProfile="tiny" version="1.2" width="100px" height="100px" viewBox="0 0 400 400" xml:space="preserve" xmlns="http://www.w3.org/2000/svg" xmlns:xlink="http://www.w3.org/1999/xlink">
<path d="m200 0c-110.46 0-200 89.542-200 200 0 110.46 89.542 200 200 200 110.46 0 200-89.545 200-200 0-110.46-89.545-200-200-200zm81.375 262.5c-25.439 0-46.375-10.26-62.375-22.198v65.948c0 10.357-8.643 18.75-19 18.75-10.354 0-19-8.393-19-18.75v-106.57c-5-6.5-15.695-19.477-31-28.253v16.07c0 10.354-8.646 18.75-19 18.75s-19-8.396-19-18.75v-24.42c-16 2.884-31 16.647-31 30.67 0 15.771 18.826 31.25 37.75 31.25 7.947 0 15.952-1.721 23.794-5.127 9.512-4.107 20.544 0.244 24.662 9.747 4.12 9.503-0.244 20.545-9.745 24.665-12.583 5.45-25.604 8.215-38.711 8.215-35.474 0-75-28.234-75-68.75 0-40.515 39.526-68.75 75-68.75 37.14 0 65.069 21.826 81.25 38.904 16.181-17.078 44.11-38.904 81.25-38.904 35.474 0 75.063 28.235 75.063 68.75 0 40.516-39.464 68.75-74.938 68.75zm37.375-68.75c0 15.771-18.573 31.25-37.5 31.25-26.453 0-47.144-19.037-57.685-31.229 10.571-12.189 31.329-31.271 57.685-31.271 18.927 0 37.5 15.479 37.5 31.25z"/>
</svg>
