<?xml version="1.0" encoding="UTF-8"?>
<svg baseProfile="tiny" version="1.2" width="400px" height="171px" viewBox="0 0 400 171" xml:space="preserve" xmlns="http://www.w3.org/2000/svg">
<path d="m399 52.5c0.553 0 1-0.448 1-1s-0.447-1-1-1h-148v-48h148c0.553 0 1-0.448 1-1s-0.447-1-1-1h-398c-0.552 0-1 0.448-1 1s0.448 1 1 1h148v48h-148c-0.552 0-1 0.448-1 1s0.448 1 1 1h148v48h-148c-0.552 0-1 0.447-1 1s0.448 1 1 1h148v48.551c-5.054 0.501-9 4.764-9 9.949 0 5.523 4.476 10 10 10s10-4.477 10-10c0-5.186-3.946-9.447-9-9.949v-40.064c4.627 22.829 24.807 40.015 49.003 40.015 24.191 0 44.369-17.184 48.997-40.011v40.061c-5.054 0.502-9 4.764-9 9.949 0 5.523 4.477 10 10 10s10-4.477 10-10c0-5.186-3.946-9.447-9-9.949v-48.552h148c0.553 0 1-0.447 1-1s-0.447-1-1-1h-148v-48h148zm-169 50h-20.051c-0.502 5-4.764 9-9.949 9-5.187 0-9.447-4-9.949-9h-20.051c-0.553 0-1-0.447-1-1s0.447-1 1-1h20.051c0.502-5 4.763-9 9.949-9 5.185 0 9.447 4 9.949 9h20.051c0.553 0 1 0.447 1 1s-0.447 1-1 1zm-49.432-56.828 9.779-10.217 5.735 5.735-8.65 8.651c-1.207 1.206-1.135 2.388-0.468 2.888-2.677 0.722-5.263 1.662-7.743 2.797-1.381-2.963-1.305-6.607 1.347-9.854zm35.292 6.77-0.853 0.853c-2.682-0.843-5.465-1.455-8.32-1.836l3.437-3.436c1.839-1.839-0.763-4.439-2.602-2.602l-5.627 5.627c-0.629-0.023-1.257-0.048-1.892-0.048-3.587 0-7.083 0.385-10.456 1.103 0.026-0.025 0.052-0.043 0.079-0.069l12.913-12.913c8.399-8.399 21.721 4.921 13.321 13.321zm12.761 7.57c0.895-2.845 1.379-5.871 1.379-9.012 0-16.568-13.433-30-30-30-16.568 0-30 13.432-30 30 0 3.141 0.485 6.168 1.38 9.013-10.317 7.217-17.789 18.22-20.38 31.003v-88.516h98v88.513c-2.592-12.783-10.063-23.784-20.379-31.001z"/>
</svg>
